<svg width="22" height="19" fill="none" xmlns="http://www.w3.org/2000/svg"><path fill-rule="evenodd" clip-rule="evenodd" d="M11.027 14.974l.668-.645h.001l.09.064c.05.034.097.067.143.103l1.737 1.273c.986.723 1.971 1.446 2.959 2.168.903.66 1.694.364 1.942-.718l.005-.027 1.123-5.254 1.909-8.936c.03-.146.063-.292.096-.438.104-.462.207-.925.248-1.392.081-.934-.595-1.398-1.468-1.064a9028.802 9028.802 0 01-8.638 3.31L6.829 5.34l-1.484.567A482.019 482.019 0 001.157 7.52a3.58 3.58 0 00-.954.561c-.304.253-.256.6.076.822.198.122.41.217.634.282 1.487.47 2.976.931 4.468 1.385.172.037.307.17.347.34.335 1.036.673 2.071 1.01 3.106.3.915.599 1.83.895 2.746.087.266.245.39.527.406.416.023.742-.133 1.031-.416.608-.594 1.22-1.184 1.836-1.78zm-2.775.75a5.222 5.222 0 00-.023.096h-.002l-.047-.114c-.022-.053-.039-.093-.052-.133l-.392-1.196c-.415-1.27-.83-2.54-1.256-3.805-.071-.214-.02-.307.16-.419 1.51-.943 3.018-1.887 4.527-2.831 2.011-1.26 4.023-2.518 6.037-3.775.183-.11.38-.194.587-.249.06-.016.135.014.21.044.033.013.066.027.097.036a1.15 1.15 0 00-.032.094.43.43 0 01-.094.188c-.456.417-.916.83-1.377 1.242a7538.327 7538.327 0 00-2.393 2.144c-1.786 1.6-3.57 3.199-5.361 4.793a.786.786 0 00-.275.573c-.071.868-.153 1.734-.235 2.6l-.055.592c-.004.035-.012.07-.024.12z" fill="#fff"/></svg>