<svg width="21" height="21" fill="none" xmlns="http://www.w3.org/2000/svg"><path fill-rule="evenodd" clip-rule="evenodd" d="M17.828 3.052A10.314 10.314 0 0010.478 0C4.751 0 .091 4.67.088 10.405a10.4 10.4 0 001.387 5.202L0 21l5.508-1.447a10.364 10.364 0 004.965 1.267h.004c5.726 0 10.388-4.668 10.39-10.406a10.35 10.35 0 00-3.039-7.362zm-7.353 16.01h-.004a8.613 8.613 0 01-4.397-1.206l-.315-.187-3.267.859.873-3.194-.205-.327a8.634 8.634 0 01-1.32-4.599c0-4.768 3.876-8.648 8.64-8.648 4.768.003 8.632 3.877 8.63 8.653-.002 4.769-3.875 8.649-8.635 8.649zm4.737-6.478c-.26-.13-1.536-.759-1.774-.848-.238-.09-.41-.13-.584.13-.172.26-.67.846-.822 1.02-.151.173-.303.195-.562.064-.26-.13-1.096-.404-2.088-1.29-.772-.69-1.293-1.54-1.445-1.801-.152-.26-.016-.4.114-.531.117-.116.26-.303.39-.456.129-.152.173-.26.26-.433.086-.174.042-.326-.022-.456-.065-.13-.584-1.41-.801-1.93-.21-.507-.424-.439-.584-.45-.15-.007-.324-.008-.498-.008a.951.951 0 00-.692.325c-.238.26-.909.89-.909 2.169 0 1.28.93 2.516 1.06 2.69.13.174 1.83 2.8 4.434 3.926.483.21.977.392 1.48.549.622.2 1.188.17 1.636.103.498-.075 1.535-.629 1.752-1.236.216-.607.216-1.128.149-1.237-.067-.108-.234-.17-.494-.3z" fill="#fff"/></svg>