<svg viewBox="0 0 592 205" preserveAspectRatio="none" fill="none" xmlns="http://www.w3.org/2000/svg"><g clip-path="url(#clip0_4208_12)"><path opacity=".17" d="M5.634 65.487L1.31 72.786v110.601h588.848V1l-4.539 3.151c-4.54 3.152-13.618 9.454-22.864 12.54-9.245 3.085-18.658 2.953-28.034 3.534-9.376.58-18.715 1.873-28.057 3.093-9.343 1.22-18.689 2.366-28.029 3.646-9.339 1.279-18.672 2.69-28.18.726-9.508-1.965-19.192-7.307-28.637-8.054-9.444-.748-18.651 3.098-27.795 8.127-9.145 5.028-18.228 11.24-27.408 15.594-9.18 4.355-18.456 6.852-27.876 6.576-9.421-.275-18.985-3.325-28.711-9.473-9.725-6.15-19.612-15.397-28.843-12.047-9.232 3.35-17.81 19.298-26.887 25.637-9.076 6.34-18.652 3.07-28.178.75-9.527-2.32-19.004-3.689-28.571-6.79-9.567-3.102-19.224-7.935-28.634-8.007-9.41-.073-18.572 4.616-27.905 6.02-9.333 1.404-18.837-.478-28.301-1.598-9.465-1.12-18.89-1.48-28.043 3.373-9.154 4.852-18.037 14.917-27.56 12.652-9.525-2.266-19.689-16.862-29.095-16.86-9.406 0-18.053 14.598-22.377 21.897z" fill="url(#paint0_linear_4208_12)"/><path d="M1.31 72.786l4.324-7.299c4.323-7.299 12.97-21.897 22.377-21.898 9.406 0 19.57 14.595 29.094 16.86 9.523 2.266 18.407-7.799 27.56-12.651 9.154-4.853 18.579-4.493 28.043-3.373 9.464 1.12 18.968 3.002 28.301 1.598 9.333-1.404 18.496-6.093 27.905-6.02 9.41.072 19.067 4.905 28.634 8.007 9.567 3.101 19.045 4.47 28.571 6.79 9.527 2.32 19.102 5.59 28.179-.75 9.077-6.34 17.654-22.287 26.886-25.637 9.232-3.35 19.118 5.898 28.844 12.046 9.725 6.15 19.29 9.198 28.71 9.474 9.42.276 18.697-2.221 27.876-6.576 9.18-4.355 18.263-10.566 27.408-15.595 9.145-5.028 18.351-8.874 27.796-8.127 9.445.748 19.128 6.09 28.636 8.055 9.508 1.965 18.841.553 28.181-.726 9.339-1.28 18.686-2.426 28.028-3.646 9.343-1.22 18.682-2.513 28.057-3.093 9.376-.58 18.789-.449 28.035-3.534 9.245-3.086 18.324-9.388 22.863-12.54L590.158 1" stroke="url(#paint1_linear_4208_12)" stroke-width="2"/></g><defs><linearGradient id="paint0_linear_4208_12" x1="294.653" y1="28.273" x2="300.158" y2="174.848" gradientUnits="userSpaceOnUse"><stop stop-color="#29CB7E"/><stop offset="1" stop-color="#29CB7E" stop-opacity="0"/></linearGradient><linearGradient id="paint1_linear_4208_12" x1="598.13" y1="33.853" x2="96.347" y2="-53.697" gradientUnits="userSpaceOnUse"><stop offset=".078" stop-color="#29CB7E"/><stop offset=".49" stop-color="#29CB7E" stop-opacity=".938"/><stop offset="1" stop-color="#29CB7E" stop-opacity=".1"/></linearGradient><clipPath id="clip0_4208_12"><path fill="#fff" d="M0 0h592v205H0z"/></clipPath></defs></svg>