<svg viewBox="0 0 592 164" preserveAspectRatio="none" fill="none" xmlns="http://www.w3.org/2000/svg"><g clip-path="url(#clip0_3983_82)"><path opacity=".17" d="M-38.846 92.638l-6.484 2.615c-5.095 2.056-7.176 8.157-4.398 12.897l30.12 51.4a8.998 8.998 0 007.765 4.45H583a9 9 0 009-9V8.783c0-4.87-3.916-8.944-8.769-8.543-31.684 2.613-24.839 25.737-34.945 26.153-6.325.26-19.616 12.965-28.443 22.166-4.303 4.486-11.827 3.68-14.878-1.737l-12.318-21.874a9 9 0 00-11.261-3.91l-2.62 1.077a9.001 9.001 0 01-7.204-.16l-23.478-10.88a8.998 8.998 0 00-7.834.128l-22.465 11.32a9 9 0 01-4.563.948l-13.688-.78a9 9 0 00-8.892 5.701l-10.318 26.334c-3.06 7.81-14.198 7.557-16.9-.384l-8.97-26.361c-1.693-4.974-7.268-7.447-12.091-5.363l-12.669 5.476a9 9 0 01-8.459-.704l-6.879-4.45c-5.187-3.355-12.487-.535-16.427 4.222-4.22 5.095-11.171 9.826-22.221 8.85-20.406-1.803-29.971 12.59-31.649 15.426a6.21 6.21 0 00-.465 1.001l-11.327 30.508c-2.141 5.764-9.303 7.733-14.088 3.872l-10.195-8.224a9 9 0 00-11.076-.176l-6.444 4.869c-4.161 3.144-10.116 2.104-12.965-2.265l-18.174-27.875c-3.514-5.39-11.913-5.773-17.164-2.055-7.959 5.636-21.014 11.502-40.006 10.144-8.52-.61-14.655 4.526-18.74 10.056-3.922 5.309-12.088 7.44-16.96 2.988l-.388-.355c-4.01-3.666-10.33-2.97-13.445 1.482L35.17 100.339a9 9 0 01-10.455 3.295l-13.632-4.968a9 9 0 00-4.365-.453l-13.185 1.9a8.997 8.997 0 01-4.113-.364l-22.07-7.308a9 9 0 00-6.196.197z" fill="url(#paint0_linear_3983_82)"/><path d="M-55 99.154l16.154-6.516a9 9 0 016.196-.198l22.07 7.309a8.997 8.997 0 004.113.364l13.185-1.9a9 9 0 014.365.453l13.632 4.968a9 9 0 0010.455-3.295l17.452-24.931c3.116-4.451 9.435-5.148 13.445-1.482l.388.355c4.872 4.453 13.038 2.321 16.96-2.988 4.085-5.53 10.22-10.666 18.74-10.056 18.992 1.358 32.047-4.508 40.006-10.144 5.251-3.718 13.65-3.334 17.164 2.055l18.174 27.875c2.849 4.369 8.804 5.41 12.965 2.265l6.444-4.869a9 9 0 0111.076.176l10.195 8.224c4.785 3.86 11.947 1.892 14.088-3.872l11.327-30.508a6.21 6.21 0 01.465-1c1.678-2.836 11.243-17.23 31.649-15.427 11.05.976 18.001-3.755 22.221-8.85 3.94-4.757 11.24-7.577 16.427-4.222l6.879 4.45a9 9 0 008.459.704l12.669-5.476c4.823-2.084 10.398.389 12.091 5.363l8.97 26.361c2.702 7.941 13.84 8.194 16.9.384l10.318-26.334a9 9 0 018.892-5.702l13.688.781a9 9 0 004.563-.948l22.465-11.32a8.998 8.998 0 017.834-.129l23.478 10.881a9.001 9.001 0 007.204.16l2.62-1.076a9 9 0 0111.261 3.909l12.318 21.874c3.051 5.416 10.575 6.223 14.878 1.737 8.827-9.201 22.118-21.905 28.443-22.166 10.95-.45 2-27.558 43.714-26.354" stroke="url(#paint1_linear_3983_82)" stroke-width="2" stroke-linecap="round" stroke-linejoin="round"/></g><defs><linearGradient id="paint0_linear_3983_82" x1="270.921" y1="14.543" x2="270.921" y2="146.527" gradientUnits="userSpaceOnUse"><stop stop-color="#29CB7E"/><stop offset="1" stop-color="#29CB7E" stop-opacity="0"/></linearGradient><linearGradient id="paint1_linear_3983_82" x1="598.842" y1="70.753" x2="37.101" y2="5.251" gradientUnits="userSpaceOnUse"><stop offset=".078" stop-color="#29CB7E"/><stop offset=".719" stop-color="#29CB7E" stop-opacity=".938"/><stop offset="1" stop-color="#29CB7E" stop-opacity="0"/></linearGradient><clipPath id="clip0_3983_82"><path fill="#fff" d="M0 0h592v164H0z"/></clipPath></defs></svg>