<svg viewBox="0 0 592 207" preserveAspectRatio="none" fill="none" xmlns="http://www.w3.org/2000/svg"><g clip-path="url(#clip0_3982_81)"><path opacity=".2" d="M73.16 159.13l-13.473-24.053c-.839-1.497-3.049-1.313-3.628.302L38.17 185.288h552.081a2 2 0 002-2V1.968a1.97 1.97 0 00-1.925-1.961c-39.594-.665-33.127 49.718-41.694 51.403a5425.925 5425.925 0 01-32.309 3.815 2 2 0 01-1.392-.36l-25.761-18.45a2 2 0 00-2.416.066l-11.107 8.908a2 2 0 01-2.594-.077L444.712 19.66a2 2 0 00-2.745.057L415.476 45.79a2 2 0 01-1.624.562L393.629 44.1a2 2 0 00-2.046 1.167L373.862 84.7c-.719 1.6-3.002 1.565-3.672-.055l-18.686-45.15a2 2 0 00-3.138-.763L325.988 57.62a2 2 0 01-2.858-.287l-16.977-21.446c-1.14-1.44-3.483-.758-3.63 1.073-1.553 19.39-8.333 86.349-27.698 83.009-15.653-2.7-24.929-7.281-29.161-9.849-1.296-.786-3.142-.084-3.448 1.401l-14.205 68.925c-.363 1.761-2.684 2.186-3.647.669l-21.124-33.28a2 2 0 00-3.345-.051l-16.49 24.333a2 2 0 01-3.241.097l-20.608-26.798a1.695 1.695 0 00-.252-.27c-1.93-1.644-24.688-20.51-58.094-25.177-13.95-1.949-21.512 26.177-24.146 38.532-.395 1.856-2.976 2.285-3.903.63z" fill="url(#paint0_linear_3982_81)"/><path d="M-56 194.045l18.1-14.259a2 2 0 012.323-.108l25.269 16.34a2.001 2.001 0 001.627.246l15.74-4.428a2 2 0 011.7.296l19.328 13.756a2 2 0 003.042-.955l24.93-69.553c.58-1.615 2.79-1.799 3.628-.303L73.16 159.13c.927 1.656 3.508 1.226 3.903-.63 2.634-12.354 10.195-40.481 24.147-38.532 33.405 4.668 56.163 23.534 58.093 25.178.099.084.173.166.252.27l20.608 26.797a2 2 0 003.241-.097l16.49-24.332a2 2 0 013.345.05l21.124 33.28c.963 1.518 3.284 1.093 3.647-.668l14.205-68.926c.306-1.484 2.152-2.187 3.448-1.4 4.232 2.567 13.508 7.148 29.161 9.848 19.365 3.341 26.145-63.619 27.698-83.008.147-1.831 2.49-2.514 3.63-1.074l16.977 21.446a2 2 0 002.858.287l22.378-18.888a2 2 0 013.138.764l18.686 45.15c.67 1.62 2.953 1.654 3.672.054l17.721-39.432a2 2 0 012.046-1.168l20.223 2.253a2 2 0 001.624-.563l26.491-26.07a2 2 0 012.745-.058l28.341 25.652a2 2 0 002.594.078l11.107-8.909a2 2 0 012.416-.066l25.762 18.45a1.97 1.97 0 001.377.363c4.045-.456 23.397-2.618 32.272-3.332 10.953-.88.92-53.837 42.648-51.486" stroke="url(#paint1_linear_3982_81)" stroke-width="2" stroke-linecap="round" stroke-linejoin="round"/></g><defs><linearGradient id="paint0_linear_3982_81" x1="270.551" y1="18.393" x2="270.551" y2="185.32" gradientUnits="userSpaceOnUse"><stop stop-color="#29CB7E"/><stop offset="1" stop-color="#29CB7E" stop-opacity="0"/></linearGradient><linearGradient id="paint1_linear_3982_81" x1="598.073" y1="138.56" x2="30.516" y2="104.672" gradientUnits="userSpaceOnUse"><stop offset=".078" stop-color="#29CB7E"/><stop offset=".719" stop-color="#29CB7E" stop-opacity=".938"/><stop offset="1" stop-color="#29CB7E" stop-opacity="0"/></linearGradient><clipPath id="clip0_3982_81"><path fill="#fff" d="M0 0h592v207H0z"/></clipPath></defs></svg>