<svg viewBox="0 0 594 187" preserveAspectRatio="none" fill="none" xmlns="http://www.w3.org/2000/svg"><path opacity=".17" d="M6.481 41.047L1 36.495V187h592V1l-5.482 8.466c-5.481 8.466-16.444 25.397-27.407 26.499-10.963 1.102-21.926-13.626-32.889-20.748-10.963-7.123-21.926-6.64-32.889-1.716-10.963 4.925-21.926 14.293-32.889 20.754-10.963 6.462-21.925 10.017-32.888 13.822-10.963 3.804-21.926 7.857-32.889 7.136-10.963-.72-21.926-6.215-32.889-5.811-10.963.404-21.926 6.706-32.889 10.73-10.963 4.025-21.926 5.77-32.889 6.413a163.939 163.939 0 01-32.889-1.385c-10.963-1.568-21.926-4.243-32.889-7.898-10.963-3.655-21.926-8.289-32.889-8.085-10.963.204-21.926 5.245-32.889 9.059-10.963 3.813-21.925 6.399-32.888 4.414-10.963-1.984-21.926-8.539-32.89-9.2-10.962-.661-21.925 4.57-32.888 7.28-10.963 2.709-21.926 2.895-32.89-1.564C22.927 54.706 11.964 45.6 6.482 41.048z" fill="url(#paint0_linear_1112_3408)"/><path d="M1 36.495l5.481 4.553C11.963 45.6 22.926 54.706 33.89 59.165c10.963 4.46 21.926 4.273 32.889 1.564 10.963-2.71 21.926-7.941 32.889-7.28 10.963.661 21.926 7.216 32.889 9.2 10.963 1.985 21.925-.6 32.888-4.414 10.963-3.814 21.926-8.855 32.889-9.059 10.963-.204 21.926 4.43 32.889 8.085 10.963 3.655 21.926 6.33 32.889 7.898A163.939 163.939 0 00297 66.545c10.963-.642 21.926-2.388 32.889-6.413 10.963-4.024 21.926-10.326 32.889-10.73 10.963-.404 21.926 5.09 32.889 5.811 10.963.721 21.926-3.332 32.889-7.136 10.963-3.805 21.925-7.36 32.888-13.822 10.963-6.461 21.926-15.829 32.889-20.754 10.963-4.924 21.926-5.407 32.889 1.716 10.963 7.123 21.926 21.85 32.889 20.748 10.963-1.102 21.926-18.034 27.407-26.5L593 1" stroke="url(#paint1_linear_1112_3408)" stroke-width="2"/><defs><linearGradient id="paint0_linear_1112_3408" x1="299.216" y1="17.494" x2="299.216" y2="167.183" gradientUnits="userSpaceOnUse"><stop stop-color="#29CB7E"/><stop offset="1" stop-color="#29CB7E" stop-opacity="0"/></linearGradient><linearGradient id="paint1_linear_1112_3408" x1="599.26" y1="44.938" x2="93.22" y2="-42.005" gradientUnits="userSpaceOnUse"><stop offset=".078" stop-color="#29CB7E"/><stop offset=".49" stop-color="#29CB7E" stop-opacity=".938"/><stop offset="1" stop-color="#29CB7E" stop-opacity=".1"/></linearGradient></defs></svg>