<svg viewBox="0 0 594 192" preserveAspectRatio="none" fill="none" xmlns="http://www.w3.org/2000/svg"><path opacity=".17" d="M7.167 50.855L1 43.868V192h592V1l-6.167 3.24c-6.166 3.239-18.5 9.718-30.833 17.81-12.333 8.091-24.667 17.796-37 15.288-12.333-2.508-24.667-17.228-37-19.899-12.333-2.671-24.667 6.707-37 6.512-12.333-.195-24.667-9.963-37-5.716-12.333 4.247-24.667 22.51-37 25.987-12.333 3.478-24.667-7.83-37-11.993-12.333-4.163-24.667-1.182-37 2.806-12.333 3.987-24.667 8.981-37 11.187-12.333 2.206-24.667 1.625-37-.111-12.333-1.736-24.667-4.627-37-4.701-12.333-.074-24.667 2.668-37 10.392-12.333 7.724-24.667 20.43-37 18.18-12.333-2.25-24.667-19.453-37-19.31-12.333.142-24.667 17.63-37 19.388-12.333 1.757-24.667-12.218-30.833-19.205z" fill="url(#paint0_linear_1112_3412)"/><path d="M1 43.868l6.167 6.987C13.333 57.843 25.667 71.817 38 70.06c12.333-1.757 24.667-19.246 37-19.389 12.333-.142 24.667 17.062 37 19.311 12.333 2.25 24.667-10.456 37-18.18 12.333-7.724 24.667-10.466 37-10.392 12.333.074 24.667 2.965 37 4.7 12.333 1.737 24.667 2.319 37 .112 12.333-2.206 24.667-7.2 37-11.187 12.333-3.988 24.667-6.97 37-2.806 12.333 4.163 24.667 15.47 37 11.993 12.333-3.477 24.667-21.74 37-25.987 12.333-4.247 24.667 5.521 37 5.716 12.333.195 24.667-9.183 37-6.512 12.333 2.671 24.667 17.391 37 19.9 12.333 2.507 24.667-7.198 37-15.29 12.333-8.091 24.667-14.57 30.833-17.81L593 1" stroke="url(#paint1_linear_1112_3412)" stroke-width="2"/><defs><linearGradient id="paint0_linear_1112_3412" x1="299.216" y1="17.937" x2="299.216" y2="171.651" gradientUnits="userSpaceOnUse"><stop stop-color="#29CB7E"/><stop offset="1" stop-color="#29CB7E" stop-opacity="0"/></linearGradient><linearGradient id="paint1_linear_1112_3412" x1="599.26" y1="47.22" x2="91.819" y2="-35.659" gradientUnits="userSpaceOnUse"><stop offset=".078" stop-color="#29CB7E"/><stop offset=".49" stop-color="#29CB7E" stop-opacity=".938"/><stop offset="1" stop-color="#29CB7E" stop-opacity=".1"/></linearGradient></defs></svg>