<svg viewBox="0 0 594 206" preserveAspectRatio="none" fill="none" xmlns="http://www.w3.org/2000/svg"><path d="M1 57.193l6.167 7.288c6.166 7.288 18.5 21.864 30.833 23.396 12.333 1.532 24.667-9.98 37-18.536 12.333-8.556 24.667-14.155 37-15.004 12.333-.849 24.667 3.052 37 10.074 12.333 7.022 24.667 17.164 37 14.567 12.333-2.596 24.667-17.932 37-21.743 12.333-3.81 24.667 3.903 37 4.103 12.333.2 24.667-7.112 37-14.258 12.333-7.146 24.667-14.125 37-7.225 12.333 6.9 24.667 27.68 37 35.427 12.333 7.746 24.667 2.458 37-10.565 12.333-13.022 24.667-33.778 37-47.453C457.333 3.59 469.667-3.003 482 3.558c12.333 6.562 24.667 26.277 37 30.576 12.333 4.298 24.667-6.82 37-14.819C568.333 11.317 580.667 6.44 586.833 4L593 1.56" stroke="url(#paint0_linear_1112_3410)" stroke-width="2"/><path opacity=".17" d="M7.167 64.48L1 57.194V206h592V1.56L586.833 4c-6.166 2.439-18.5 7.317-30.833 15.315-12.333 7.999-24.667 19.117-37 14.819-12.333-4.299-24.667-24.014-37-30.576-12.333-6.561-24.667.032-37 13.706-12.333 13.675-24.667 34.431-37 47.453-12.333 13.023-24.667 18.31-37 10.565-12.333-7.746-24.667-28.527-37-35.427-12.333-6.9-24.667.079-37 7.225-12.333 7.146-24.667 14.458-37 14.258-12.333-.2-24.667-7.914-37-4.103-12.333 3.811-24.667 19.147-37 21.743-12.333 2.597-24.667-7.545-37-14.567-12.333-7.022-24.667-10.923-37-10.074-12.333.85-24.667 6.448-37 15.004-12.333 8.556-24.667 20.068-37 18.536C25.667 86.345 13.333 71.769 7.167 64.48z" fill="url(#paint1_linear_1112_3410)"/><defs><linearGradient id="paint0_linear_1112_3410" x1="599.26" y1="59.081" x2="86.937" y2="-7.507" gradientUnits="userSpaceOnUse"><stop offset=".078" stop-color="#29CB7E"/><stop offset=".49" stop-color="#29CB7E" stop-opacity=".938"/><stop offset="1" stop-color="#29CB7E" stop-opacity=".1"/></linearGradient><linearGradient id="paint1_linear_1112_3410" x1="299.216" y1="19.179" x2="299.216" y2="184.159" gradientUnits="userSpaceOnUse"><stop stop-color="#29CB7E"/><stop offset="1" stop-color="#29CB7E" stop-opacity="0"/></linearGradient></defs></svg>