<svg viewBox="0 0 594 218" preserveAspectRatio="none" fill="none" xmlns="http://www.w3.org/2000/svg"><path opacity=".17" d="M5.933 65.624L1 66.33V218h592V1l-4.933 9.263c-4.934 9.263-14.8 27.79-24.667 38.768-9.867 10.979-19.733 14.41-29.6 11.143-9.867-3.266-19.733-13.229-29.6-19.093-9.867-5.865-19.733-7.63-29.6-6.185-9.867 1.446-19.733 6.103-29.6 6.056-9.867-.047-19.733-4.798-29.6-3.778s-19.733 7.809-29.6 6.378c-9.867-1.43-19.733-11.082-29.6-6.803-9.867 4.278-19.733 22.486-29.6 24.724-9.867 2.239-19.733-11.493-29.6-17.967-9.867-6.475-19.733-5.693-29.6-9.534-9.867-3.84-19.733-12.304-29.6-7.633-9.867 4.672-19.733 22.48-29.6 24.503-9.867 2.024-19.733-11.735-29.6-11.922-9.867-.187-19.733 13.2-29.6 18.039-9.867 4.84-19.733 1.133-29.6-.398-9.867-1.53-19.733-.884-29.6 2.645-9.867 3.528-19.733 9.94-29.6 10.9-9.867.96-19.733-3.53-29.6-5.068-9.867-1.538-19.733-.122-24.667.586z" fill="url(#paint0_linear_1112_3405)"/><path d="M1 66.331l4.933-.707c4.934-.708 14.8-2.124 24.667-.586 9.867 1.537 19.733 6.028 29.6 5.068s19.733-7.371 29.6-10.9 19.733-4.175 29.6-2.645c9.867 1.53 19.733 5.237 29.6.398 9.867-4.84 19.733-18.226 29.6-18.039 9.867.187 19.733 13.946 29.6 11.922 9.867-2.023 19.733-19.83 29.6-24.502 9.867-4.672 19.733 3.791 29.6 7.632 9.867 3.841 19.733 3.06 29.6 9.534s19.733 20.206 29.6 17.967c9.867-2.238 19.733-20.446 29.6-24.724 9.867-4.279 19.733 5.372 29.6 6.803 9.867 1.43 19.733-5.359 29.6-6.378 9.867-1.02 19.733 3.731 29.6 3.778 9.867.047 19.733-4.61 29.6-6.056 9.867-1.446 19.733.32 29.6 6.185 9.867 5.864 19.733 15.827 29.6 19.093s19.733-.164 29.6-11.143c9.867-10.978 19.733-29.505 24.667-38.768L593 1" stroke="url(#paint1_linear_1112_3405)" stroke-width="2"/><defs><linearGradient id="paint0_linear_1112_3405" x1="299.216" y1="20.243" x2="299.216" y2="194.88" gradientUnits="userSpaceOnUse"><stop stop-color="#29CB7E"/><stop offset="1" stop-color="#29CB7E" stop-opacity="0"/></linearGradient><linearGradient id="paint1_linear_1112_3405" x1="599.26" y1="47.216" x2="91.821" y2="-35.669" gradientUnits="userSpaceOnUse"><stop offset=".078" stop-color="#29CB7E"/><stop offset=".49" stop-color="#29CB7E" stop-opacity=".938"/><stop offset="1" stop-color="#29CB7E" stop-opacity=".1"/></linearGradient></defs></svg>