<svg viewBox="0 0 594 199" preserveAspectRatio="none" fill="none" xmlns="http://www.w3.org/2000/svg"><path opacity=".17" d="M7.578 117.108L1 117.294V199h592V1l-6.578.465c-6.578.465-19.733 1.394-32.889 5.453-13.155 4.058-26.311 11.246-39.466 11.354-13.156.108-26.311-6.864-39.467-6.159-13.156.706-26.311 9.088-39.467 14.863-13.155 5.776-26.311 8.945-39.466 16.373-13.156 7.428-26.311 19.114-39.467 17.897-13.156-1.217-26.311-15.338-39.467-21.101-13.155-5.763-26.311-3.17-39.466-3.335-13.156-.166-26.311-3.093-39.467 6.255-13.156 9.347-26.311 30.968-39.467 38.123-13.155 7.155-26.311-.154-39.466-9.692-13.156-9.539-26.311-21.305-39.467-21.851-13.156-.546-26.311 10.128-39.467 23.087-13.155 12.959-26.31 28.202-39.466 36.01-13.156 7.808-26.311 8.18-32.89 8.366z" fill="url(#paint0_linear_1112_3406)"/><path d="M1 117.294l6.578-.186c6.578-.186 19.733-.558 32.889-8.366 13.155-7.808 26.31-23.052 39.466-36.01 13.156-12.96 26.311-23.633 39.467-23.087 13.156.546 26.311 12.312 39.467 21.85 13.155 9.539 26.311 16.848 39.466 9.693 13.156-7.155 26.311-28.776 39.467-38.123 13.156-9.347 26.311-6.421 39.467-6.255 13.155.166 26.311-2.428 39.466 3.335 13.156 5.763 26.311 19.884 39.467 21.1 13.156 1.218 26.311-10.468 39.467-17.896 13.155-7.428 26.311-10.597 39.466-16.373 13.156-5.775 26.311-14.157 39.467-14.863 13.156-.705 26.311 6.267 39.467 6.159 13.155-.108 26.311-7.296 39.466-11.354 13.156-4.059 26.311-4.988 32.889-5.453L593 1" stroke="url(#paint1_linear_1112_3406)" stroke-width="2"/><defs><linearGradient id="paint0_linear_1112_3406" x1="299.216" y1="18.558" x2="299.216" y2="177.905" gradientUnits="userSpaceOnUse"><stop stop-color="#29CB7E"/><stop offset="1" stop-color="#29CB7E" stop-opacity="0"/></linearGradient><linearGradient id="paint1_linear_1112_3406" x1="599.26" y1="78.625" x2="83.164" y2="28.434" gradientUnits="userSpaceOnUse"><stop offset=".078" stop-color="#29CB7E"/><stop offset=".49" stop-color="#29CB7E" stop-opacity=".938"/><stop offset="1" stop-color="#29CB7E" stop-opacity=".1"/></linearGradient></defs></svg>